<?xml version="1.0" standalone="no"?>
<!DOCTYPE svg PUBLIC "-//W3C//DTD SVG 20010904//EN"
 "http://www.w3.org/TR/2001/REC-SVG-20010904/DTD/svg10.dtd">
<svg version="1.0" xmlns="http://www.w3.org/2000/svg"
 width="406.000000pt" height="63.000000pt" viewBox="0 0 406.000000 63.000000"
 preserveAspectRatio="xMidYMid meet">

<g transform="translate(0.000000,63.000000) scale(0.100000,-0.100000)"
fill="#000000" stroke="none">
<path d="M162 578 c-26 -69 -148 -388 -157 -410 -7 -17 8 -18 233 -18 l241 0
19 53 c11 28 52 135 91 236 39 101 71 185 71 187 0 2 -108 4 -239 4 l-240 0
-19 -52z m468 25 c0 -5 -37 -104 -82 -220 l-82 -213 -218 0 c-120 0 -218 3
-218 7 0 4 37 103 82 220 l81 213 219 0 c120 0 218 -3 218 -7z"/>
<path d="M196 537 c-9 -23 -16 -46 -16 -50 0 -4 83 -7 185 -7 l186 0 19 46
c11 25 20 48 20 50 0 2 -85 4 -189 4 l-188 0 -17 -43z"/>
<path d="M282 435 c-19 -41 -15 -45 48 -45 48 0 61 4 70 19 22 42 14 51 -48
51 -53 0 -60 -2 -70 -25z"/>
<path d="M256 361 c-3 -4 -19 -43 -35 -85 l-30 -77 66 3 65 3 29 70 c15 39 28
76 28 83 1 14 -114 18 -123 3z"/>
<path d="M1673 589 c-120 -23 -206 -117 -206 -224 0 -102 63 -165 180 -181
155 -20 307 121 278 258 -23 107 -132 171 -252 147z m94 -141 c36 -39 34 -79
-6 -119 -41 -40 -91 -40 -132 0 -32 32 -35 53 -15 90 29 53 116 69 153 29z"/>
<path d="M3153 589 c-123 -23 -203 -113 -203 -225 0 -70 25 -114 83 -148 98
-57 224 -40 306 42 153 153 30 373 -186 331z m89 -133 c65 -49 17 -156 -70
-156 -38 0 -92 46 -92 77 1 27 24 64 51 79 31 17 89 17 111 0z"/>
<path d="M2640 568 c-25 -13 -55 -38 -67 -57 -62 -92 15 -171 165 -171 28 0
52 -4 52 -8 0 -37 -116 -44 -211 -12 -34 12 -63 20 -64 18 -2 -2 -12 -26 -23
-55 l-20 -52 52 -18 c37 -13 82 -18 161 -18 99 0 114 3 153 25 24 13 52 38 62
56 28 44 26 105 -3 132 -23 22 -101 42 -163 42 -41 0 -47 26 -8 36 26 7 126 0
175 -12 23 -5 27 -1 42 37 9 24 14 46 9 50 -14 14 -115 29 -190 29 -61 0 -88
-5 -122 -22z"/>
<path d="M670 534 c-11 -25 -20 -50 -20 -55 0 -5 25 -9 55 -9 30 0 55 -2 55
-4 0 -1 -22 -61 -49 -132 l-50 -129 61 -3 c34 -2 64 1 69 5 4 4 30 64 57 133
l50 125 55 3 55 3 18 47 c11 26 21 50 22 54 2 5 -78 8 -178 8 l-181 0 -19 -46z"/>
<path d="M1022 397 c-40 -101 -72 -187 -72 -190 0 -4 31 -7 69 -7 l69 0 27 75
28 75 68 0 c38 0 69 -2 69 -4 0 -2 -11 -34 -25 -70 -14 -37 -25 -69 -25 -72 0
-3 30 -4 66 -2 l66 3 68 166 c95 234 94 209 12 209 l-69 0 -26 -60 -26 -60
-65 0 c-36 0 -66 2 -66 5 0 2 9 27 20 55 11 28 20 53 20 55 0 3 -31 5 -68 5
l-68 0 -72 -183z"/>
<path d="M1968 407 c-37 -95 -70 -180 -74 -189 -5 -16 1 -18 62 -18 l69 0 45
113 45 112 3 -113 3 -113 37 3 c33 3 43 12 116 105 44 57 81 101 83 100 2 -2
-15 -48 -37 -102 -22 -54 -40 -100 -40 -102 0 -2 32 -3 72 -1 l72 3 73 185
c40 102 73 186 73 188 0 1 -51 2 -112 2 l-113 0 -57 -82 -58 -82 0 82 0 82
-97 0 -98 -1 -67 -172z"/>
<path d="M3465 448 c-27 -73 -60 -159 -72 -190 l-22 -58 68 0 68 0 38 96 c20
52 41 92 45 87 4 -4 25 -47 45 -96 l37 -87 72 0 71 0 70 181 c39 100 72 186
73 190 2 5 -27 9 -65 9 l-68 0 -39 -100 c-22 -55 -40 -99 -41 -98 -2 2 -22 47
-45 101 l-43 97 -71 0 -71 0 -50 -132z"/>
<path d="M3990 565 c-13 -16 -10 -53 5 -45 6 3 10 15 10 28 -1 17 4 22 19 20
21 -3 36 -38 17 -38 -5 0 -12 8 -15 18 -3 9 -4 5 -2 -10 2 -16 -1 -28 -7 -28
-6 0 -8 -2 -5 -5 10 -10 37 7 43 26 13 39 -38 66 -65 34z m7 -37 c-3 -7 -5 -2
-5 12 0 14 2 19 5 13 2 -7 2 -19 0 -25z"/>
</g>
</svg>
